<svg width="16" height="16" viewBox="0 0 16 16" fill="none" xmlns="http://www.w3.org/2000/svg">
<path d="M8 1.6C4.46538 1.6 1.6 4.46538 1.6 8C1.6 11.5346 4.46538 14.4 8 14.4C11.5346 14.4 14.4 11.5346 14.4 8C14.4 4.46538 11.5346 1.6 8 1.6ZM0 8C0 3.58172 3.58172 0 8 0C12.4183 0 16 3.58172 16 8C16 12.4183 12.4183 16 8 16C3.58172 16 0 12.4183 0 8ZM8.23432 4.23431C8.54673 3.92189 9.05327 3.92189 9.36569 4.23431L12.5657 7.43431C12.8781 7.74673 12.8781 8.25327 12.5657 8.56569L9.36569 11.7657C9.05327 12.0781 8.54673 12.0781 8.23431 11.7657C7.9219 11.4533 7.9219 10.9467 8.23431 10.6343L10.0686 8.8H4C3.55817 8.8 3.2 8.44183 3.2 8C3.2 7.55817 3.55817 7.2 4 7.2H10.0686L8.23432 5.36568C7.9219 5.05327 7.9219 4.54673 8.23432 4.23431Z" fill="#004CE5"/>
</svg>
