<svg width="6" height="6" viewBox="0 0 6 6" fill="none" xmlns="http://www.w3.org/2000/svg">
<path d="M0.125526 0.125526C0.292893 -0.0418419 0.56425 -0.0418419 0.731617 0.125526L3 2.39391L5.26838 0.125526C5.43575 -0.0418419 5.70711 -0.0418419 5.87447 0.125526C6.04184 0.292893 6.04184 0.56425 5.87447 0.731617L3.60609 3L5.87447 5.26838C6.04184 5.43575 6.04184 5.70711 5.87447 5.87447C5.70711 6.04184 5.43575 6.04184 5.26838 5.87447L3 3.60609L0.731617 5.87447C0.56425 6.04184 0.292893 6.04184 0.125526 5.87447C-0.0418419 5.70711 -0.0418419 5.43575 0.125526 5.26838L2.39391 3L0.125526 0.731617C-0.0418419 0.56425 -0.0418419 0.292893 0.125526 0.125526Z" fill="white"/>
</svg>
