<svg width="14" height="13" viewBox="0 0 14 13" fill="none" xmlns="http://www.w3.org/2000/svg">
<path fill-rule="evenodd" clip-rule="evenodd" d="M0.333496 1.99984C0.333496 1.26346 0.93045 0.666504 1.66683 0.666504H12.3335C13.0699 0.666504 13.6668 1.26346 13.6668 1.99984V9.33317C13.6668 10.0696 13.0699 10.6665 12.3335 10.6665H9.27631L7.47157 12.4712C7.21122 12.7316 6.78911 12.7316 6.52876 12.4712L4.72402 10.6665H1.66683C0.93045 10.6665 0.333496 10.0695 0.333496 9.33317V1.99984ZM12.3335 1.99984H1.66683V9.33317H5.00016C5.17697 9.33317 5.34654 9.40341 5.47157 9.52843L7.00016 11.057L8.52876 9.52843C8.65378 9.40341 8.82335 9.33317 9.00016 9.33317H12.3335V1.99984ZM3.00016 4.33317C3.00016 3.96498 3.29864 3.6665 3.66683 3.6665H10.3335C10.7017 3.6665 11.0002 3.96498 11.0002 4.33317C11.0002 4.70136 10.7017 4.99984 10.3335 4.99984H3.66683C3.29864 4.99984 3.00016 4.70136 3.00016 4.33317ZM3.00016 6.99984C3.00016 6.63165 3.29864 6.33317 3.66683 6.33317H7.66683C8.03502 6.33317 8.3335 6.63165 8.3335 6.99984C8.3335 7.36803 8.03502 7.6665 7.66683 7.6665H3.66683C3.29864 7.6665 3.00016 7.36803 3.00016 6.99984Z" fill="#303030"/>
</svg>
