<svg width="16" height="16" viewBox="0 0 16 16" fill="none" xmlns="http://www.w3.org/2000/svg">
<path fill-rule="evenodd" clip-rule="evenodd" d="M8.00016 3.01843C6.42961 1.61126 4.01433 1.66231 2.50507 3.17157C0.942972 4.73367 0.942972 7.26633 2.50507 8.82843L7.05735 13.3807C7.57805 13.9014 8.42227 13.9014 8.94297 13.3807L13.4953 8.82843C15.0574 7.26633 15.0574 4.73367 13.4953 3.17157C11.986 1.66231 9.57071 1.61126 8.00016 3.01843ZM7.21911 4.11438C6.17772 3.07298 4.48928 3.07298 3.44788 4.11438C2.40648 5.15578 2.40648 6.84422 3.44788 7.88562L8.00016 12.4379L12.5524 7.88562C13.5938 6.84422 13.5938 5.15578 12.5524 4.11438C11.5111 3.07298 9.82261 3.07298 8.78121 4.11438L8.47157 4.42403C8.21122 4.68438 7.78911 4.68438 7.52876 4.42403L7.21911 4.11438Z" fill="#303030"/>
</svg>
