<svg width="16" height="13" viewBox="0 0 16 13" fill="none" xmlns="http://www.w3.org/2000/svg">
<path fill-rule="evenodd" clip-rule="evenodd" d="M16 8C16 7.50908 15.602 7.11111 15.1111 7.11111L4.44445 7.11111C2.97169 7.11111 1.77778 5.9172 1.77778 4.44444L1.77778 0.888889C1.77778 0.397969 1.37981 -6.43764e-08 0.888889 0C0.39797 6.43763e-08 0 0.397969 0 0.888889L1.90735e-06 4.44444C1.90735e-06 6.89904 1.98985 8.88889 4.44445 8.88889L15.1111 8.88889C15.602 8.88889 16 8.49092 16 8Z" fill="#E0E0E0"/>
<path fill-rule="evenodd" clip-rule="evenodd" d="M15.7397 8.62854C16.0868 8.28141 16.0868 7.71859 15.7397 7.37146L12.1841 3.8159C11.837 3.46877 11.2741 3.46877 10.927 3.8159C10.5799 4.16304 10.5799 4.72585 10.927 5.07298L13.854 8L10.927 10.927C10.5799 11.2741 10.5799 11.837 10.927 12.1841C11.2741 12.5312 11.837 12.5312 12.1841 12.1841L15.7397 8.62854Z" fill="#E0E0E0"/>
</svg>
