<svg width="18" height="18" viewBox="0 0 18 18" fill="none" xmlns="http://www.w3.org/2000/svg">
<path fill-rule="evenodd" clip-rule="evenodd" d="M7.33366 2.06706C4.57224 2.06706 2.33366 4.30563 2.33366 7.06706C2.33366 9.82848 4.57224 12.0671 7.33366 12.0671C10.0951 12.0671 12.3337 9.82848 12.3337 7.06706C12.3337 4.30563 10.0951 2.06706 7.33366 2.06706ZM0.666992 7.06706C0.666992 3.38516 3.65176 0.400391 7.33366 0.400391C11.0156 0.400391 14.0003 3.38516 14.0003 7.06706C14.0003 8.60765 13.4778 10.0262 12.6002 11.1551L17.0896 15.6445C17.415 15.9699 17.415 16.4975 17.0896 16.823C16.7641 17.1484 16.2365 17.1484 15.9111 16.823L11.4217 12.3336C10.2928 13.2112 8.87425 13.7337 7.33366 13.7337C3.65176 13.7337 0.666992 10.749 0.666992 7.06706Z" fill="#303030"/>
</svg>
