<svg version="1.1" id="레이어_1" xmlns="http://www.w3.org/2000/svg" xmlns:xlink="http://www.w3.org/1999/xlink" x="0px"
	 y="0px" viewBox="0 0 62.36 62.36" style="enable-background:new 0 0 62.36 62.36;" xml:space="preserve">
<style type="text/css">
	.st0{fill:#004CE5;}
	.st1{fill:#303030;}
</style>
<g>
	<path class="st0" d="M44.59,21.57c-9.11,0-16.52,7.41-16.52,16.52s7.41,16.52,16.52,16.52s16.52-7.41,16.52-16.52
		S53.7,21.57,44.59,21.57z"/>
	<path class="st1" d="M24.67,54.6c-12.91,0-23.42-10.51-23.42-23.42S11.76,7.76,24.67,7.76s23.42,10.51,23.42,23.42
		S37.59,54.6,24.67,54.6z M24.67,14.76c-9.05,0-16.42,7.37-16.42,16.42S15.62,47.6,24.67,47.6s16.42-7.37,16.42-16.42
		S33.73,14.76,24.67,14.76z"/>
</g>
</svg>
