<svg width="16" height="13" viewBox="0 0 16 13" fill="none" xmlns="http://www.w3.org/2000/svg">
<path d="M3.43431 0.234315C3.74673 -0.0781049 4.25327 -0.0781049 4.56569 0.234315L7.76569 3.43431C8.0781 3.74673 8.0781 4.25327 7.76569 4.56569C7.45327 4.8781 6.94673 4.8781 6.63432 4.56569L4.8 2.73137V12C4.8 12.4418 4.44183 12.8 4 12.8C3.55817 12.8 3.2 12.4418 3.2 12V2.73137L1.36569 4.56569C1.05327 4.8781 0.546734 4.8781 0.234315 4.56569C-0.0781049 4.25327 -0.0781049 3.74673 0.234315 3.43431L3.43431 0.234315ZM11.2 10.0686V0.8C11.2 0.358172 11.5582 2.38419e-08 12 2.38419e-08C12.4418 2.38419e-08 12.8 0.358172 12.8 0.8V10.0686L14.6343 8.23431C14.9467 7.9219 15.4533 7.9219 15.7657 8.23431C16.0781 8.54673 16.0781 9.05327 15.7657 9.36569L12.5657 12.5657C12.4157 12.7157 12.2122 12.8 12 12.8C11.7878 12.8 11.5843 12.7157 11.4343 12.5657L8.23431 9.36568C7.9219 9.05327 7.9219 8.54673 8.23431 8.23431C8.54673 7.92189 9.05327 7.92189 9.36569 8.23431L11.2 10.0686Z" fill="#888888"/>
</svg>
