<svg width="16" height="16" viewBox="0 0 16 16" fill="none" xmlns="http://www.w3.org/2000/svg">
<path fill-rule="evenodd" clip-rule="evenodd" d="M8.00016 2.66683C5.05464 2.66683 2.66683 5.05464 2.66683 8.00016C2.66683 10.9457 5.05464 13.3335 8.00016 13.3335C10.9457 13.3335 13.3335 10.9457 13.3335 8.00016C13.3335 5.05464 10.9457 2.66683 8.00016 2.66683ZM1.3335 8.00016C1.3335 4.31826 4.31826 1.3335 8.00016 1.3335C11.6821 1.3335 14.6668 4.31826 14.6668 8.00016C14.6668 11.6821 11.6821 14.6668 8.00016 14.6668C4.31826 14.6668 1.3335 11.6821 1.3335 8.00016Z" fill="#575757"/>
<path fill-rule="evenodd" clip-rule="evenodd" d="M8.00016 9.3335C7.63197 9.3335 7.3335 9.03502 7.3335 8.66683L7.3335 4.66683C7.3335 4.29864 7.63197 4.00016 8.00016 4.00016C8.36835 4.00016 8.66683 4.29864 8.66683 4.66683L8.66683 8.66683C8.66683 9.03502 8.36835 9.3335 8.00016 9.3335Z" fill="#575757"/>
<path d="M7.00016 11.0002C7.00016 10.4479 7.44788 10.0002 8.00016 10.0002C8.55245 10.0002 9.00016 10.4479 9.00016 11.0002C9.00016 11.5524 8.55245 12.0002 8.00016 12.0002C7.44788 12.0002 7.00016 11.5524 7.00016 11.0002Z" fill="#575757"/>
</svg>
